HIERARCHY
ROOT hip
{
  OFFSET 0 0 0
  CHANNELS 6 Xposition Yposition Zposition Zrotation Yrotation Xrotation
  JOINT abdomen
  {
    OFFSET 0 20.6881 -0.73152
    CHANNELS 3 Zrotation Xrotation Yrotation
    JOINT chest
    {
      OFFSET 0 11.7043 -0.48768
      CHANNELS 3 Zrotation Xrotation Yrotation
      JOINT neck
      {
        OFFSET 0 22.1894 -2.19456
        CHANNELS 3 Zrotation Xrotation Yrotation
        JOINT head
        {
          OFFSET -0.24384 7.07133 1.2192
          CHANNELS 3 Zrotation Xrotation Yrotation
          JOINT leftEye
          {
            OFFSET 4.14528 8.04674 8.04672
            CHANNELS 3 Zrotation Xrotation Yrotation
            End Site
            {
              OFFSET 1 0 0
            }
          }
          JOINT rightEye
          {
            OFFSET -3.6576 8.04674 8.04672
            CHANNELS 3 Zrotation Xrotation Yrotation
            End Site
            {
              OFFSET 1 0 0
            }
          }
        }
      }
      JOINT rCollar
      {
        OFFSET -2.68224 19.2634 -4.8768
        CHANNELS 3 Zrotation Xrotation Yrotation
        JOINT rShldr
        {
          OFFSET -8.77824 -1.95073 1.46304
          CHANNELS 3 Zrotation Xrotation Yrotation
          JOINT rForeArm
          {
            OFFSET -28.1742 -1.7115 0.48768
            CHANNELS 3 Zrotation Xrotation Yrotation
            JOINT rHand
            {
              OFFSET -22.5879 0.773209 7.07136
              CHANNELS 3 Zrotation Xrotation Yrotation
              JOINT rThumb1
              {
                OFFSET -1.2192 -0.487915 3.41376
                CHANNELS 3 Zrotation Xrotation Yrotation
                JOINT rThumb2
                {
                  OFFSET -3.37035 -0.52449 3.41376
                  CHANNELS 3 Zrotation Xrotation Yrotation
                  End Site
                  {
                    OFFSET -1.78271 -1.18214 1.43049
                  }
                }
              }
              JOINT rIndex1
              {
                OFFSET -7.75947 0.938293 5.60832
                CHANNELS 3 Zrotation Xrotation Yrotation
                JOINT rIndex2
                {
                  OFFSET -2.54057 -0.884171 1.56538
                  CHANNELS 3 Zrotation Xrotation Yrotation
                  End Site
                  {
                    OFFSET -1.62519 -0.234802 1.16502
                  }
                }
              }
              JOINT rMid1
              {
                OFFSET -8.24714 1.18213 3.41376
                CHANNELS 3 Zrotation Xrotation Yrotation
                JOINT rMid2
                {
                  OFFSET -3.10165 -0.590103 1.0647
                  CHANNELS 3 Zrotation Xrotation Yrotation
                  End Site
                  {
                    OFFSET -2.48547 -0.328903 0.83742
                  }
                }
              }
              JOINT rRing1
              {
                OFFSET -8.82822 0.546677 1.51678
                CHANNELS 3 Zrotation Xrotation Yrotation
                JOINT rRing2
                {
                  OFFSET -2.60934 -0.819778 -0.0198488
                  CHANNELS 3 Zrotation Xrotation Yrotation
                  End Site
                  {
                    OFFSET -2.33842 -0.294052 0.168128
                  }
                }
              }
              JOINT rPinky1
              {
                OFFSET -8.27202 -0.0477905 -0.4584
                CHANNELS 3 Zrotation Xrotation Yrotation
                JOINT rPinky2
                {
                  OFFSET -1.82734 -0.647385 -0.700984
                  CHANNELS 3 Zrotation Xrotation Yrotation
                  End Site
                  {
                    OFFSET -1.69225 -0.51767 -0.607171
                  }
                }
              }
            }
          }
        }
      }
      JOINT lCollar
      {
        OFFSET 2.68224 19.2634 -4.8768
        CHANNELS 3 Zrotation Xrotation Yrotation
        JOINT lShldr
        {
          OFFSET 8.77824 -1.95073 1.46304
          CHANNELS 3 Zrotation Xrotation Yrotation
          JOINT lForeArm
          {
            OFFSET 28.1742 -1.7115 0.48768
            CHANNELS 3 Zrotation Xrotation Yrotation
            JOINT lHand
            {
              OFFSET 22.5879 0.773209 7.07136
              CHANNELS 3 Zrotation Xrotation Yrotation
              JOINT lThumb1
              {
                OFFSET 1.2192 -0.487915 3.41376
                CHANNELS 3 Zrotation Xrotation Yrotation
                JOINT lThumb2
                {
                  OFFSET 3.37035 -0.52449 3.41376
                  CHANNELS 3 Zrotation Xrotation Yrotation
                  End Site
                  {
                    OFFSET 1.78271 -1.18214 1.43049
                  }
                }
              }
              JOINT lIndex1
              {
                OFFSET 7.75947 0.938293 5.60832
                CHANNELS 3 Zrotation Xrotation Yrotation
                JOINT lIndex2
                {
                  OFFSET 2.54057 -0.884171 1.56538
                  CHANNELS 3 Zrotation Xrotation Yrotation
                  End Site
                  {
                    OFFSET 1.62519 -0.234802 1.16502
                  }
                }
              }
              JOINT lMid1
              {
                OFFSET 8.24714 1.18213 3.41376
                CHANNELS 3 Zrotation Xrotation Yrotation
                JOINT lMid2
                {
                  OFFSET 3.10165 -0.590103 1.0647
                  CHANNELS 3 Zrotation Xrotation Yrotation
                  End Site
                  {
                    OFFSET 2.48547 -0.328903 0.83742
                  }
                }
              }
              JOINT lRing1
              {
                OFFSET 8.82822 0.546677 1.51678
                CHANNELS 3 Zrotation Xrotation Yrotation
                JOINT lRing2
                {
                  OFFSET 2.60934 -0.819778 -0.0198488
                  CHANNELS 3 Zrotation Xrotation Yrotation
                  End Site
                  {
                    OFFSET 2.33842 -0.294052 0.168128
                  }
                }
              }
              JOINT lPinky1
              {
                OFFSET 8.27202 -0.0477905 -0.4584
                CHANNELS 3 Zrotation Xrotation Yrotation
                JOINT lPinky2
                {
                  OFFSET 1.82734 -0.647385 -0.700984
                  CHANNELS 3 Zrotation Xrotation Yrotation
                  End Site
                  {
                    OFFSET 1.69225 -0.51767 -0.607171
                  }
                }
              }
            }
          }
        }
      }
    }
  }
  JOINT rButtock
  {
    OFFSET -8.77824 4.35084 1.2192
    CHANNELS 3 Zrotation Xrotation Yrotation
    JOINT rThigh
    {
      OFFSET 0 -1.70687 -2.19456
      CHANNELS 3 Zrotation Xrotation Yrotation
      JOINT rShin
      {
        OFFSET 0 -36.8199 0.73152
        CHANNELS 3 Zrotation Xrotation Yrotation
        JOINT rFoot
        {
          OFFSET 0.73152 -45.1104 -5.12064
          CHANNELS 3 Zrotation Xrotation Yrotation
          End Site
          {
            OFFSET -1.1221 -3.69964 12.103
          }
        }
      }
    }
  }
  JOINT lButtock
  {
    OFFSET 8.77824 4.35084 1.2192
    CHANNELS 3 Zrotation Xrotation Yrotation
    JOINT lThigh
    {
      OFFSET 0 -1.70687 -2.19456
      CHANNELS 3 Zrotation Xrotation Yrotation
      JOINT lShin
      {
        OFFSET 0 -36.8199 0.73152
        CHANNELS 3 Zrotation Xrotation Yrotation
        JOINT lFoot
        {
          OFFSET -0.73152 -45.1104 -5.12064
          CHANNELS 3 Zrotation Xrotation Yrotation
          End Site
          {
            OFFSET 1.1221 -3.69964 12.103
          }
        }
      }
    }
  }
}
MOTION
Frames:	4
Frame Time:	0.03333
-0.006959999882383272 54.69070076942444 0.004999999873689376 1.1648999687247816 45.49709900493803 1.9289000631249609 -7.2798896787400365 8.517999777135541 -2.978260018241278 5.027449957933919 -10.554899645190389 -0.40011400236365435 -10.395500105435216 19.182999510425596 -15.564199656065469 17.018300826584287 -20.19920017778197 -27.712399727059534 -0.0 0.0 0.0 -0.0 0.0 0.0 -5.4886698579567374e-14 8.450029986097439e-14 -6.119139988118055e-13 58.57490318989646 -0.5415740235833619 24.17960049208633 -28.24179915189076 -32.333900379881506 70.99390147846131 -0.39830600326558435 17.65700035360864 2.5640500262150248 -1.446950017274292e-09 -1.0120699926924391e-09 2.080439977724802e-09 -2.4755300705335407e-09 -1.6880199605711516e-09 3.608470086431635e-09 -1.4469399786485787e-09 -1.0120699926924391e-09 2.0804200992580427e-09 7.730910121524428 5.474879855648998 0.41731399283890674 -1.446950017274292e-09 -1.0120699926924391e-09 2.080439977724802e-09 2.90554006136521 0.9651829962377875 0.10290200252939893 -1.446950017274292e-09 -1.0120699926924391e-09 2.0804499169581813e-09 10.278599710243157 0.7318009818271524 0.025912300303053633 -1.446950017274292e-09 -1.0120699926924391e-09 2.0804499169581813e-09 2.221669932038622 -0.7334870246959406 -0.20891999872313852 -5.488140258912525e-14 8.450090043721008e-14 -6.1202799910091e-13 -63.66850310305513 78.9117982737986 -11.051100081787123 27.637199344297695 -42.01259945268057 -87.61089795545608 40.3004008013526 -79.25730339296369 47.79679979281922 -1.0487500377334185e-09 -3.7210400148697423e-08 1.3017899985739662e-09 -1.874089963254136e-09 -6.925690260544558e-08 2.1398000612376287e-09 -1.048759976966798e-09 -3.7210400148697423e-08 1.3017899985739662e-09 -7.730910121524428 5.474879855648998 -0.41731399283890674 -1.0487500377334185e-09 -3.7210400148697423e-08 1.3017899985739662e-09 -2.90554006136521 0.9651829962377875 -0.10290200252939893 -1.0487500377334185e-09 -3.7210400148697423e-08 1.3017899985739662e-09 -10.278599710243157 0.7318009818271524 -0.025912300303053633 -1.048739999107705e-09 -3.7210400148697423e-08 1.3017799599482527e-09 -2.221669932038622 -0.7334870246959406 0.20891999872313852 -2.0321699793705798e-16 0.0 -3.882510030490358e-19 -62.51510271829342 -46.284100721863574 -63.245598280215454 -1.7513699996614012 66.49159787193982 1.677800004398784 -0.12873999450974893 4.491219917045857 9.172349828869333 2.0321699793705798e-16 0.0 3.882510030490358e-19 28.37370035004746 -25.190400187356516 32.70669893496997 3.338250047645266 80.29950146784843 -6.658099992553341 12.368199610386531 -28.90709885063773 25.311200620564655
-0.012860000060754828 54.69260215759277 0.005999999848427251 1.1127000345495477 45.51350170422981 1.9012000175025627 -7.271569654557315 8.52757997122013 -2.954670038951935 5.02946998638095 -10.54769977203155 -0.39578499645118853 -10.453899930386118 19.054800274799042 -15.540399861902559 17.164299535187894 -19.873000588305917 -27.661900723431046 -0.0 0.0 0.0 -0.0 0.0 0.0 -3.8649000791592095e-14 -2.06266998188617e-14 -7.034179882093507e-13 58.57299756711803 -0.574296019153865 24.148400187957712 -28.242900519894427 -32.343599248502926 71.00969970601156 -0.3990599921169303 17.673000071739395 2.566530025213974 -1.8968199960698826e-09 -1.404150038368341e-10 4.06964017844113e-09 -3.231769960791118e-09 -1.3950799909478113e-10 7.050989961525889e-09 -1.896810056836503e-09 -1.404050024832459e-10 4.0696298416384155e-09 7.730910121524428 5.474879855648998 0.41731399283890674 -1.896810056836503e-09 -1.404050024832459e-10 4.06964017844113e-09 2.90554006136521 0.9651829962377875 0.10290200252939893 -1.8968199960698826e-09 -1.4041700410755172e-10 4.06964017844113e-09 10.278599710243157 0.7318009818271524 0.025912300303053633 -1.8968199960698826e-09 -1.404139974894544e-10 4.06965011767451e-09 2.221669932038622 -0.7334870246959406 -0.20891999872313852 -3.8762000120303834e-14 -2.061879981479154e-14 -7.036370104761573e-13 -63.38440138452845 78.9816984297645 -11.291599580199733 27.634199183704766 -42.02390000066235 -87.63179833431633 40.29180159318756 -79.25590320418384 47.78799909407366 -3.45442006952345e-10 1.3337100254786671e-08 2.0949399277329264e-09 -7.234859914900304e-10 1.5073599621305365e-08 3.523340154966253e-09 -3.454460074937803e-10 1.3337100254786671e-08 2.0949399277329264e-09 -7.730910121524428 5.474879855648998 -0.41731399283890674 -3.45442006952345e-10 1.3337100254786671e-08 2.094929988499547e-09 -2.90554006136521 0.9651829962377875 -0.10290200252939893 -3.454479953404562e-10 1.3337100254786671e-08 2.0949399277329264e-09 -10.278599710243157 0.7318009818271524 -0.025912300303053633 -3.454300053280392e-10 1.3337100254786671e-08 2.094929988499547e-09 -2.221669932038622 -0.7334870246959406 0.20891999872313852 -2.0321699793705798e-16 0.0 -3.882510030490358e-19 -62.469101394233384 -46.29680145862522 -63.23740205321143 -1.7504599836762027 66.49739670254516 1.6781999973520527 -0.12399500072836026 4.474559804999727 9.128979835187044 2.0321699793705798e-16 0.0 3.882510030490358e-19 28.42949958047188 -25.21319935880602 32.70120063268811 3.3440100315497023 80.3070010155571 -6.66684989176695 12.361099628744302 -28.8917992268969 25.309699686494543
-0.017360000128974207 54.695600271224976 0.013000000035390258 1.0980999715901165 45.52810123358071 1.9102000723945238 -7.292499915495172 8.527159914586173 -2.944160085366578 5.041089845706434 -10.538800035543023 -0.3938350041235763 -10.449399689496726 19.040999877581033 -15.517600690453056 17.225100171632054 -19.817300395624464 -27.610699917865336 -0.0 0.0 0.0 -0.0 0.0 0.0 -4.2100700477409506e-14 -1.5957099774335667e-14 -5.503209869287402e-13 58.57510126538239 -0.5889520042871257 24.123299242757916 -28.244700274740723 -32.3590013250813 71.03400151907846 -0.39916300524343584 17.67519939265214 2.566870040568594 -1.6537499808400512e-09 3.265880018257141e-10 3.949559926719816e-09 -2.813650067887905e-09 6.628670046773469e-10 6.842720084735625e-09 -1.6537400416066717e-09 3.26599009526682e-10 3.949559926719816e-09 7.730910121524428 5.474879855648998 0.41731399283890674 -1.6537499808400512e-09 3.265979907552606e-10 3.949559926719816e-09 2.90554006136521 0.9651829962377875 0.10290200252939893 -1.6537600194657645e-09 3.2658598913095477e-10 3.9495698659531955e-09 10.278599710243157 0.7318009818271524 0.025912300303053633 -1.6537600194657645e-09 3.265880018257141e-10 3.949579805186575e-09 2.221669932038622 -0.7334870246959406 -0.20891999872313852 -4.223459864583843e-14 -1.594879938610837e-14 -5.505569951900921e-13 -63.13820038570617 79.04890066100826 -11.500899628257374 27.631699334468543 -42.03340079379784 -87.64939973180745 40.480000625578086 -79.28760211212187 47.97959956067086 -4.273219954632325e-11 2.928249866080656e-08 2.0589700409169175e-09 -2.0317100037037626e-10 4.2883501464594314e-08 3.480550164989848e-09 -4.273479927705409e-11 2.928249866080656e-08 2.0589700409169175e-09 -7.730910121524428 5.474879855648998 -0.41731399283890674 -4.273269961400266e-11 2.928249866080656e-08 2.0589700409169175e-09 -2.90554006136521 0.9651829962377875 -0.10290200252939893 -4.273870042615557e-11 2.928249866080656e-08 2.0589700409169175e-09 -10.278599710243157 0.7318009818271524 -0.025912300303053633 -4.272080048804105e-11 2.928249866080656e-08 2.0589599028988702e-09 -2.221669932038622 -0.7334870246959406 0.20891999872313852 -2.0321699793705798e-16 0.0 -3.882510030490358e-19 -62.46949754520524 -46.313501271145896 -63.246397412348344 -1.7511299825450986 66.50900119394501 1.680309992197058 -0.12002000405418473 4.456049992348992 9.088200190747484 2.0321699793705798e-16 0.0 3.882510030490358e-19 28.448900732809303 -25.239500709752445 32.69700006634856 3.3415300325507533 80.30140026043769 -6.665970078024488 12.359800185254707 -28.872698602882963 25.31640010207033
-0.027259999842499383 54.69920039176941 0.026000000070780516 1.1252000277826115 45.54289883841755 1.962000013616489 -7.3426599709861 8.516719970439809 -2.9467399758821387 5.062309962797195 -10.528400218758032 -0.39426501255659624 -10.382000236540687 19.14160002631886 -15.495800434169668 17.201500160502366 -20.032299382770834 -27.55810063106707 -0.0 0.0 0.0 -0.0 0.0 0.0 -6.524170057419362e-14 9.850880122304128e-14 -1.52622000076008e-13 58.581200624311215 -0.5855300261520964 24.104299364034233 -28.24720012397695 -32.37990170394154 71.06690254031041 -0.39861600314045303 17.663600023894166 2.5650600404385404 -7.177650184529148e-10 3.8893800552378416e-10 1.7202099569329088e-09 -1.2211599556288521e-09 7.191010005076302e-10 2.9836699977248864e-09 -7.177580112933822e-10 3.8893899944712214e-10 1.7202000176995292e-09 7.730910121524428 5.474879855648998 0.41731399283890674 -7.177650184529148e-10 3.889399933704601e-10 1.7202099569329088e-09 2.90554006136521 0.9651829962377875 0.10290200252939893 -7.177609930633961e-10 3.8893701160044624e-10 1.7202099569329088e-09 10.278599710243157 0.7318009818271524 0.025912300303053633 -7.177670062995908e-10 3.8893800552378416e-10 1.7202200949509558e-09 2.221669932038622 -0.7334870246959406 -0.20891999872313852 -6.529930129498161e-14 9.851079707740033e-14 -1.5278800177412728e-13 -62.93050116323525 79.11369866566417 -11.678499914603337 27.62969979658902 -42.04099937924948 -87.6635996950919 40.86879889879731 -79.35199713561676 48.37520070230342 -1.4061800025457017e-10 1.0626000215139192e-08 1.1938800399489381e-09 -3.1314700258993277e-10 1.4172799743866585e-08 2.0114300913084146e-09 -1.4062200079600543e-10 1.0625900027666726e-08 1.193900017808031e-09 -7.730910121524428 5.474879855648998 -0.41731399283890674 -1.4061899417790812e-10 1.0625900027666726e-08 1.1938899791823177e-09 -2.90554006136521 0.9651829962377875 -0.10290200252939893 -1.4062600133744073e-10 1.0625900027666726e-08 1.1938899791823177e-09 -10.278599710243157 0.7318009818271524 -0.025912300303053633 -1.4061100551907928e-10 1.0626000215139192e-08 1.1938899791823177e-09 -2.221669932038622 -0.7334870246959406 0.20891999872313852 -2.0321699793705798e-16 0.0 -3.882510030490358e-19 -62.51620237874979 -46.334401650006136 -63.27270047084206 -1.753379996268089 66.52650013859859 1.684129988933799 -0.11681700551920576 4.435710115887517 9.050029678570867 2.0321699793705798e-16 0.0 3.882510030490358e-19 28.43190039196514 -25.269500608134436 32.69389916046537 3.3308299008856936 80.28259674965264 -6.655510070197437 12.364500209177322 -28.849701355947527 25.331199414454453
